<svg version="1.1" xmlns="http://www.w3.org/2000/svg" xmlns:xlink="http://www.w3.org/1999/xlink" width="117.1497" height="122.70896" viewBox="0,0,117.1497,122.70896"><g transform="translate(-181.42515,-118.64552)"><g data-paper-data="{&quot;isPaintingLayer&quot;:true}" fill-rule="nonzero" stroke="#000000" stroke-width="0.5" stroke-linecap="butt" stroke-linejoin="miter" stroke-miterlimit="10" stroke-dasharray="" stroke-dashoffset="0" style="mix-blend-mode: normal"><path d="M279.40559,135.30309c10.48685,8.55606 15.59084,14.78351 18.83673,28.22605c0.54192,22.24427 -1.25257,43.69182 -15.48755,61.48555c-20.05572,15.95342 -44.07573,17.44972 -68.76469,15.33267c-11.3968,-3.13591 -18.05418,-7.91525 -25.86419,-16.72654c-4.54686,-9.45747 -6.99017,-17.34405 -6.3499,-27.87758c1.22662,-2.70877 2.45323,-5.41754 3.71701,-8.20839c3.89235,-9.56868 3.77322,-12.87718 2.47801,-22.76669c-1.60455,-13.1609 -0.82423,-19.65371 6.19502,-30.97509c22.58631,-24.22666 60.09079,-15.36504 85.23956,1.51004z" fill="#fffefe"/><path d="M263.9858,148.55462c7.45835,4.64528 11.54118,9.25831 14.43246,17.45252c-0.16456,8.66334 -0.16456,8.66335 -1.39388,18.43018c-0.36095,3.21667 -0.72191,6.43333 -1.0938,9.74747c-2.88153,10.4978 -6.45619,14.62284 -14.85837,21.38249c-7.94183,2.64728 -14.89796,3.44747 -23.23131,4.18164c-2.77904,0.26513 -5.55809,0.53026 -8.42135,0.80342c-8.27252,-0.03005 -13.11149,-1.16139 -20.38548,-4.98506c-4.80114,-5.57551 -4.80114,-5.57551 -7.43402,-12.39003c1.83728,-7.85017 4.84477,-14.61219 8.05352,-21.99231c2.21293,-9.22052 0.4907,-14.1633 -2.1005,-23.03772c-0.99701,-4.5301 -0.99701,-4.53011 0.39687,-10.41538c13.98491,-15.80903 39.43304,-6.48008 56.03587,0.82278z" fill="#fffefa"/><path d="M223.90211,156.09512c26.74679,1.50613 26.74678,1.50613 37.1701,9.91203c0.81774,1.63548 1.63549,3.27097 2.47801,4.95601c-2.478,4.95602 -2.47801,4.95601 -9.91203,9.91203c2.45322,3.27097 4.90645,6.54193 7.43402,9.91203c-4.33651,9.60227 -4.33651,9.60228 -9.91202,12.39004c-5.88285,0.17634 -11.77055,0.20838 -17.6558,0.15488c-3.17514,-0.02236 -6.35028,-0.04471 -9.62163,-0.06776c-3.67025,-0.04313 -3.67026,-0.04313 -7.41467,-0.08712c2.45323,-0.81774 4.90646,-1.63548 7.43403,-2.478c0.12139,-1.82395 0.24276,-3.6479 0.36782,-5.52712c0.18527,-2.41809 0.37054,-4.83618 0.56143,-7.32755c0.17249,-2.38614 0.34499,-4.7723 0.52271,-7.23075c1.0314,-7.21006 3.00534,-12.94371 5.98207,-19.5627c-2.45323,-0.81774 -4.90645,-1.63549 -7.43402,-2.47801c0,-0.81774 0,-1.63549 0,-2.47801z" fill="#fffefa"/><path d="M233.81413,178.39718c8.51815,3.09751 8.51815,3.09751 17.34605,7.43402c2.32313,5.42064 2.32313,5.42064 2.478,9.91203c-8.3533,3.71257 -12.89659,4.95602 -22.30206,4.95602c0.81774,-7.35968 1.63549,-14.71936 2.478,-22.30206z" fill="#fffefa"/><path d="M238.77015,161.05113c4.90645,1.63548 9.81291,3.27097 14.86804,4.95601c0,2.45323 0,4.90645 0,7.43402c-5.7242,0 -11.4484,0 -17.34605,0c0.81774,-4.08871 1.63549,-8.17742 2.47801,-12.39003z" fill="#fffefa"/></g></g></svg>