<svg version="1.1" xmlns="http://www.w3.org/2000/svg" xmlns:xlink="http://www.w3.org/1999/xlink" width="47.074" height="49.31744" viewBox="0,0,47.074,49.31744"><g transform="translate(-217.92231,-156.82937)"><g data-paper-data="{&quot;isPaintingLayer&quot;:true}" fill-rule="nonzero" stroke="none" stroke-width="1" stroke-linecap="butt" stroke-linejoin="miter" stroke-miterlimit="10" stroke-dasharray="" stroke-dashoffset="0" style="mix-blend-mode: normal"><path d="M257.36143,163.45065c4.23197,3.4528 6.29169,5.96589 7.60156,11.39063c0.21869,8.97668 -0.50547,17.63184 -6.25,24.8125c-8.09349,6.438 -17.78677,7.04184 -27.75,6.1875c-4.59918,-1.2655 -7.28577,-3.1942 -10.4375,-6.75c-1.83489,-3.81656 -2.82088,-6.99919 -2.5625,-11.25c0.495,-1.09312 0.99,-2.18625 1.5,-3.3125c1.57076,-3.86144 1.52268,-5.19659 1,-9.1875c-0.64752,-5.31108 -0.33262,-7.93126 2.5,-12.5c9.11471,-9.77667 24.24965,-6.20056 34.39844,0.60938z" fill="#fffefe"/><path d="M251.13878,168.79831c3.00982,1.8746 4.65745,3.73619 5.82422,7.04297c-0.06641,3.49609 -0.06641,3.49609 -0.5625,7.4375c-0.14566,1.29809 -0.29133,2.59617 -0.44141,3.93359c-1.16284,4.23639 -2.60539,5.90105 -5.99609,8.62891c-3.20493,1.06831 -6.01207,1.39122 -9.375,1.6875c-1.12148,0.10699 -2.24297,0.21398 -3.39844,0.32422c-3.33838,-0.01212 -5.29114,-0.46868 -8.22656,-2.01172c-1.9375,-2.25 -1.9375,-2.25 -3,-5c0.74143,-3.16794 1.95511,-5.89675 3.25,-8.875c0.89303,-3.72094 0.19802,-5.7156 -0.84766,-9.29687c-0.40234,-1.82812 -0.40234,-1.82812 0.16016,-4.20312c5.64361,-6.37974 15.91321,-2.61504 22.61328,0.33203z" fill="#fff4e3"/><path d="M234.963,171.84127c10.79367,0.6078 10.79367,0.6078 15,4c0.33,0.66 0.66,1.32 1,2c-1,2 -1,2 -4,4c0.99,1.32 1.98,2.64 3,4c-1.75,3.875 -1.75,3.875 -4,5c-2.37403,0.07116 -4.75001,0.08409 -7.125,0.0625c-1.28133,-0.00902 -2.56266,-0.01805 -3.88281,-0.02734c-1.48113,-0.0174 -1.48113,-0.0174 -2.99219,-0.03516c0.99,-0.33 1.98,-0.66 3,-1c0.04898,-0.73605 0.09797,-1.47211 0.14844,-2.23047c0.07477,-0.97582 0.14953,-1.95164 0.22656,-2.95703c0.06961,-0.96293 0.13922,-1.92586 0.21094,-2.91797c0.41622,-2.90962 1.2128,-5.22344 2.41406,-7.89453c-0.99,-0.33 -1.98,-0.66 -3,-1c0,-0.33 0,-0.66 0,-1z" fill="#fffefa"/><path d="M238.963,180.84127c3.4375,1.25 3.4375,1.25 7,3c0.9375,2.1875 0.9375,2.1875 1,4c-3.37097,1.49821 -5.20442,2 -9,2c0.33,-2.97 0.66,-5.94 1,-9z" fill="#fff4e3"/><path d="M240.963,173.84127c1.98,0.66 3.96,1.32 6,2c0,0.99 0,1.98 0,3c-2.31,0 -4.62,0 -7,0c0.33,-1.65 0.66,-3.3 1,-5z" fill="#fff4e3"/></g></g></svg>